<?xml version="1.0" standalone="no"?>
<!DOCTYPE svg PUBLIC "-//W3C//DTD SVG 20010904//EN"
 "http://www.w3.org/TR/2001/REC-SVG-20010904/DTD/svg10.dtd">
<svg version="1.0" xmlns="http://www.w3.org/2000/svg"
 width="200.000000pt" height="200.000000pt" viewBox="0 0 200.000000 200.000000"
 preserveAspectRatio="xMidYMid meet">

<g transform="translate(0.000000,200.000000) scale(0.100000,-0.100000)"
fill="#000000" stroke="none">
<path d="M1165 1725 c-169 -37 -315 -150 -400 -310 l-26 -50 75 -22 c43 -14
103 -42 142 -68 37 -25 76 -45 88 -45 38 -1 76 -45 76 -90 0 -11 13 -47 29
-78 80 -158 85 -329 16 -496 -8 -18 -3 -19 116 -13 194 9 317 59 433 176 116
118 170 250 170 416 0 94 -23 217 -44 230 -4 2 -24 -5 -46 -15 -72 -37 -176
-21 -237 38 -68 64 -88 172 -47 252 l20 39 -21 11 c-67 36 -237 49 -344 25z
m190 -520 c53 -52 14 -145 -62 -145 -74 0 -112 92 -58 145 16 17 35 25 60 25
25 0 44 -8 60 -25z m259 4 c57 -45 19 -149 -54 -149 -37 0 -90 47 -90 80 0 26
25 77 42 83 30 12 77 6 102 -14z"/>
<path d="M1630 1724 c-69 -30 -110 -93 -110 -169 0 -77 41 -140 113 -170 95
-39 192 1 238 100 23 51 23 89 0 140 -46 99 -146 140 -241 99z"/>
<path d="M534 1325 c-34 -7 -87 -26 -118 -41 -404 -198 -407 -766 -5 -963 110
-53 165 -61 450 -61 216 0 237 2 252 18 23 26 21 41 -13 86 -38 50 -38 86 0
148 52 84 80 184 80 285 0 153 -51 276 -159 384 -130 129 -310 183 -487 144z
m-69 -470 c50 -49 15 -135 -55 -135 -41 0 -80 39 -80 80 0 41 39 80 80 80 19
0 40 -9 55 -25z m236 -4 c37 -37 37 -65 0 -102 -35 -34 -68 -37 -105 -8 -20
16 -26 29 -26 59 0 30 6 43 26 59 37 29 70 26 105 -8z m233 8 c20 -16 26 -29
26 -59 0 -70 -72 -103 -126 -57 -20 17 -27 33 -27 57 0 24 7 40 27 57 34 28
65 29 100 2z"/>
</g>
</svg>
