<?xml version="1.0" standalone="no"?>
<!DOCTYPE svg PUBLIC "-//W3C//DTD SVG 20010904//EN"
 "http://www.w3.org/TR/2001/REC-SVG-20010904/DTD/svg10.dtd">
<svg version="1.0" xmlns="http://www.w3.org/2000/svg"
 width="580.000000pt" height="386.000000pt" viewBox="0 0 580.000000 386.000000"
 preserveAspectRatio="xMidYMid meet">

<g transform="translate(0.000000,386.000000) scale(0.100000,-0.100000)"
fill="#000000" stroke="none">
<path d="M3463 3019 c-148 -14 -282 -78 -394 -189 l-75 -75 -31 37 c-82 99
-217 183 -343 212 -85 20 -227 20 -309 0 -292 -72 -491 -332 -491 -638 0 -50
3 -108 6 -128 l6 -37 42 28 c22 15 56 36 74 45 31 16 32 18 32 81 0 144 48
264 144 359 34 33 84 73 112 88 180 97 408 68 556 -69 26 -26 83 -95 125 -155
41 -59 78 -108 82 -108 3 0 35 44 71 97 141 210 270 292 461 293 203 1 398
-144 461 -343 28 -87 27 -226 -2 -341 -97 -387 -423 -779 -943 -1135 l-48 -33
-53 35 c-29 19 -101 71 -160 116 l-107 80 -55 -44 c-30 -25 -59 -45 -64 -45
-6 0 -10 -4 -10 -9 0 -10 166 -138 299 -230 143 -98 151 -97 308 9 413 279
718 602 883 935 157 316 180 587 69 808 -124 245 -369 381 -646 356z"/>
<path d="M2087 2245 c-218 -60 -378 -247 -406 -476 -15 -119 7 -233 68 -345
l28 -52 -73 -73 c-41 -41 -77 -82 -80 -92 -3 -10 2 -29 11 -43 l16 -25 352 3
c349 4 352 4 418 29 95 37 150 72 211 133 174 178 215 431 106 654 -64 130
-211 250 -353 287 -72 18 -231 18 -298 0z m218 -487 c30 -36 31 -62 5 -105
-38 -62 -123 -52 -158 20 -28 57 38 132 104 119 13 -2 35 -18 49 -34z m-290 0
c22 -26 26 -39 21 -67 -7 -44 -46 -81 -86 -81 -16 0 -42 11 -59 26 -65 54 -28
154 58 154 32 0 44 -6 66 -32z m573 10 c59 -64 18 -158 -68 -158 -11 0 -34 13
-52 29 -64 57 -27 151 61 151 26 0 44 -7 59 -22z"/>
</g>
</svg>
