<svg width="121" height="58" viewBox="0 0 121 58" fill="none" xmlns="http://www.w3.org/2000/svg">
<path d="M86.5811 6.89849V13.5116L63.5103 14.188C41.1158 14.8643 40.3643 14.9395 40.3643 16.3673C40.3643 17.8703 40.9655 17.8703 65.389 18.0957L90.3386 18.246V13.2862C90.3386 8.92752 90.4889 8.40147 91.6161 8.77722C93.4197 9.45356 112.057 21.3271 112.508 22.0035C112.808 22.4544 93.4948 35.1546 90.9398 36.1315C90.6392 36.2818 90.3386 34.4783 90.3386 32.1486C90.3386 28.1657 90.2634 27.9403 88.6853 28.1657C87.032 28.3912 86.9569 28.7669 86.7314 36.2067L86.506 44.0222L88.2344 42.895C89.2113 42.2938 96.8766 37.4842 105.368 32.1486C113.86 26.8882 120.849 22.5295 120.999 22.3792C121.075 22.3041 113.409 17.3442 103.865 11.2571L86.5811 0.285351V6.89849Z" fill="#8935EF"/>
<path d="M16.3165 28.8421C7.59923 33.8019 0.309752 38.1606 0.00915474 38.4612C-0.291442 38.7618 6.84774 43.2707 15.9408 48.456L32.4736 58V53.9419V49.8087H56.1456H79.8177V38.5363V27.264H56.2208H32.5488L32.3233 23.5065L32.0979 19.749L16.3165 28.8421Z" fill="#8935EF"/>
</svg>
